# xmcd
#
# Track frame offsets:
#	150
#	25157
#	37144
#	54080
#	76932
#	98467
#	111328
#	127681
#	146075
#	165562
#	185007
#
# Disc length: 2688 seconds
#
# Revision: 1
# Processed by: cddbd v1.5.2PL0 Copyright (c) Steve Scherf et al.
# Submitted via: audiograbber 1.83.01
#
DISCID=850a7e0b
DTITLE=Mary Gauthier - Rifles and Rosary Beads
DYEAR=2018
DGENRE=Country
TTITLE0=Soldiering On
TTITLE1=I Got Your Six
TTITLE2=The War After The War
TTITLE3=Still On The Ridge
TTITLE4=Bullet Holes In The Sky
TTITLE5=Brothers
TTITLE6=Rifles and Rosary Beads
TTITLE7=Morphine 1-2
TTITLE8=It's Her Love
TTITLE9=Iraq
TTITLE10=Stronger Together
EXTD=
EXTT0=
EXTT1=
EXTT2=
EXTT3=
EXTT4=
EXTT5=
EXTT6=
EXTT7=
EXTT8=
EXTT9=
EXTT10=
PLAYORDER=
